<?xml version="1.0" encoding="UTF-8" standalone="no"?>
<!-- Created with Inkscape (http://www.inkscape.org/) -->

<svg
   xmlns:dc="http://purl.org/dc/elements/1.1/"
   xmlns:cc="http://creativecommons.org/ns#"
   xmlns:rdf="http://www.w3.org/1999/02/22-rdf-syntax-ns#"
   xmlns:svg="http://www.w3.org/2000/svg"
   xmlns="http://www.w3.org/2000/svg"
   xmlns:xlink="http://www.w3.org/1999/xlink"
   xmlns:sodipodi="http://sodipodi.sourceforge.net/DTD/sodipodi-0.dtd"
   xmlns:inkscape="http://www.inkscape.org/namespaces/inkscape"
   width="76.767601mm"
   height="26.10603mm"
   viewBox="0 0 76.767601 26.10603"
   version="1.1"
   id="svg8"
   inkscape:version="0.92.2 5c3e80d, 2017-08-06"
   sodipodi:docname="FCU_wall_unlabeled.svg">
  <defs
     id="defs2" />
  <sodipodi:namedview
     id="base"
     pagecolor="#ffffff"
     bordercolor="#666666"
     borderopacity="1.0"
     inkscape:pageopacity="0.0"
     inkscape:pageshadow="2"
     inkscape:zoom="1"
     inkscape:cx="125.06353"
     inkscape:cy="32.053105"
     inkscape:document-units="mm"
     inkscape:current-layer="layer2"
     showgrid="false"
     inkscape:window-width="1440"
     inkscape:window-height="801"
     inkscape:window-x="0"
     inkscape:window-y="1"
     inkscape:window-maximized="1" />
  <metadata
     id="metadata5">
    <rdf:RDF>
      <cc:Work
         rdf:about="">
        <dc:format>image/svg+xml</dc:format>
        <dc:type
           rdf:resource="http://purl.org/dc/dcmitype/StillImage" />
        <dc:title></dc:title>
      </cc:Work>
    </rdf:RDF>
  </metadata>
  <g
     inkscape:label="Layer 1"
     inkscape:groupmode="layer"
     id="layer1"
     style="display:inline"
     transform="translate(0,-0.8939724)">
    <rect
       id="rect3699"
       width="180.72"
       height="49.052898"
       x="10.368437"
       y="57.682732"
       style="fill:#000000;fill-opacity:0;stroke-width:0.15695639" />
    <path
       style="fill:#000000;fill-opacity:0;stroke-width:2.02030516"
       d="m 153.91347,898.92614 c -0.77375,-52.37041 -0.91978,-95.70595 -0.32451,-96.30121 0.59527,-0.59527 1.0823,9.5243 1.0823,22.48791 0,25.79031 0.0615,25.89777 11.95019,20.89893 14.08857,-5.9238 27.32437,-23.13553 29.87418,-38.84817 l 1.13072,-6.96785 h 16.15838 16.15838 l -1.36927,-10.32204 c -4.92566,-37.13144 -29.46049,-65.92106 -65.31628,-76.64333 l -8.5863,-2.56763 V 656.93938 603.21601 H 495.115 c 282.67551,0 340.26855,0.45655 339.41125,2.69061 -0.56787,1.47984 -1.03248,89.43888 -1.03248,195.46452 v 192.7739 H 494.40704 155.32029 Z m 115.44742,57.74683 c 15.24676,-6.37051 22.69112,-17.27521 22.69112,-33.23861 0,-31.38909 -34.66621,-47.09367 -58.91488,-26.68976 -20.32884,17.1056 -13.69555,51.03531 11.75124,60.10834 10.20928,3.6401 15.42154,3.60178 24.47252,-0.18001 z m 72.04429,-157.63168 c 7.58077,-7.58077 2.39441,-13.50417 -12.78523,-14.60217 l -12.24046,-0.88539 -0.61394,-39.66123 -0.61394,-39.66124 0.067,41.41625 0.067,41.41626 12.44595,0.59678 c 12.36133,0.59273 16.19088,3.02075 12.97397,8.22582 -1.0653,1.7237 -10.50073,2.23877 -33.65319,1.83709 -30.63991,-0.53157 -32.17283,-0.75069 -32.17283,-4.59878 0,-3.52258 1.68358,-4.17011 13.13198,-5.05076 l 13.13198,-1.01015 0.54607,-41.92133 0.54606,-41.92133 h -12.95682 c -10.10214,0 -13.23468,-0.7241 -14.21798,-3.28653 -2.88341,-7.51405 2.07448,-8.8353 33.15374,-8.8353 23.6344,0 30.31563,0.60945 32.25143,2.94195 1.34289,1.61808 1.85512,3.89092 1.1383,5.05077 -0.71682,1.15984 -0.34052,2.1088 0.83622,2.1088 3.10196,0 2.62627,-7.18252 -0.6561,-9.90664 -1.91062,-1.58568 -12.87432,-2.14367 -34.63288,-1.76261 -27.75123,0.48601 -32.12311,1.01133 -34.0646,4.09311 -4.21419,6.68931 0.81025,10.53866 14.62957,11.20808 l 12.41684,0.60148 v 39.29954 39.29955 h -8.95985 c -13.05472,0 -19.32442,2.90085 -19.32442,8.94098 0,2.75021 1.59099,5.92704 3.53553,7.05964 1.95073,1.13619 16.82854,2.08679 33.19073,2.12069 24.32311,0.0504 30.22602,-0.50939 32.82996,-3.11333 z m 101.76565,0.7504 c 1.3334,-1.3334 2.42437,-4.53788 2.42437,-7.12107 0,-6.22908 -6.70388,-8.63731 -24.044,-8.63731 h -13.6794 l -8.41243,-16.7457 c -4.62682,-9.21013 -8.38645,-19.43793 -8.35471,-22.72843 0.0317,-3.29051 3.92192,-13.25583 8.64482,-22.14517 l 8.58713,-16.16245 17.10273,-0.59475 c 9.4065,-0.32712 17.74527,-1.23626 18.5306,-2.02031 1.80624,-1.8033 -35.25416,-0.52652 -37.15527,1.28005 -4.51071,4.28639 -17.78802,34.17651 -17.78802,40.04475 0,5.45565 13.22771,36.42621 17.53209,41.0486 0.49497,0.53155 8.79881,1.44068 18.45298,2.02031 15.85485,0.95191 17.55302,1.44477 17.55302,5.09447 0,3.70679 -1.5403,4.08856 -18.64408,4.62092 -14.29106,0.44483 -19.77479,-0.16055 -23.48694,-2.59285 -2.66858,-1.74851 -9.03761,-11.73681 -14.18589,-22.24712 -12.02092,-24.54096 -12.16028,-30.73745 -1.20102,-53.39982 4.47809,-9.26013 7.75036,-17.22823 7.27171,-17.70689 -1.64463,-1.64463 -17.86297,34.07871 -18.83516,41.48731 -0.79617,6.06701 0.98415,11.26153 9.8107,28.62525 13.87339,27.29198 17.9475,30.30458 40.98263,30.30458 10.1161,0 17.40503,-0.93527 18.89414,-2.42437 z M 399.68336,695.64496 c 5.71999,-5.18038 37.7535,-6.35449 42.54847,-1.55951 2.94258,2.94257 3.36337,2.97098 3.36337,0.22708 0,-4.42183 -7.37499,-5.76162 -27.1787,-4.93744 -14.54087,0.60514 -17.85041,1.40725 -21.70224,5.25972 -5.32553,5.32644 -2.76041,6.19916 2.9691,1.01015 z"
       id="path4605"
       inkscape:connector-curvature="0"
       transform="scale(0.26458333)" />
    <path
       style="fill:#000000;fill-opacity:0;stroke-width:2.02030516"
       d="m 153.91347,898.92614 c -0.77375,-52.37041 -0.91978,-95.70595 -0.32451,-96.30121 0.59527,-0.59527 1.0823,9.5243 1.0823,22.48791 0,25.79031 0.0615,25.89777 11.95019,20.89893 14.08857,-5.9238 27.32437,-23.13553 29.87418,-38.84817 l 1.13072,-6.96785 h 16.15838 16.15838 l -1.36927,-10.32204 c -4.92566,-37.13144 -29.46049,-65.92106 -65.31628,-76.64333 l -8.5863,-2.56763 V 656.93938 603.21601 H 495.115 c 282.67551,0 340.26855,0.45655 339.41125,2.69061 -0.56787,1.47984 -1.03248,89.43888 -1.03248,195.46452 v 192.7739 H 494.40704 155.32029 Z m 115.44742,57.74683 c 15.24676,-6.37051 22.69112,-17.27521 22.69112,-33.23861 0,-31.38909 -34.66621,-47.09367 -58.91488,-26.68976 -20.32884,17.1056 -13.69555,51.03531 11.75124,60.10834 10.20928,3.6401 15.42154,3.60178 24.47252,-0.18001 z m 72.04429,-157.63168 c 7.58943,-7.58943 2.39478,-13.50414 -12.82714,-14.6052 l -12.28237,-0.88842 v -39.05673 -39.05672 l 12.41684,-0.60148 c 13.82069,-0.66948 18.84556,-4.5199 14.62676,-11.20808 -1.97505,-3.1311 -5.99302,-3.53554 -35.12482,-3.53554 -29.1318,0 -33.14977,0.40444 -35.12482,3.53554 -4.2188,6.68818 0.80607,10.5386 14.62676,11.20808 l 12.41684,0.60148 v 39.29954 39.29955 h -8.95985 c -13.05472,0 -19.32442,2.90085 -19.32442,8.94098 0,2.75021 1.59099,5.92704 3.53553,7.05964 1.95073,1.13619 16.82854,2.08679 33.19073,2.12069 24.32311,0.0504 30.22602,-0.50939 32.82996,-3.11333 z m 101.76565,0.7504 c 1.3334,-1.3334 2.42437,-4.53788 2.42437,-7.12107 0,-6.22908 -6.70388,-8.63731 -24.044,-8.63731 h -13.6794 l -8.41243,-16.7457 c -4.62682,-9.21013 -8.38645,-19.43793 -8.35471,-22.72843 0.0317,-3.29051 3.92083,-13.25583 8.6424,-22.14517 l 8.5847,-16.16245 18.12664,-1.01015 18.12664,-1.01015 0.62791,-6.49667 c 0.79144,-8.18861 -2.92713,-9.35543 -26.64113,-8.3595 -20.8959,0.87757 -22.03292,1.76905 -34.62973,27.15112 -13.60059,27.4047 -13.6292,29.84852 -0.64803,55.38527 13.87339,27.29198 17.9475,30.30458 40.98263,30.30458 10.1161,0 17.40503,-0.93527 18.89414,-2.42437 z"
       id="path4607"
       inkscape:connector-curvature="0"
       transform="scale(0.26458333)" />
    <path
       style="fill:#000000;fill-opacity:0;stroke-width:0.53453904"
       d="m 40.722938,184.79423 c -0.204721,13.85634 -0.243358,25.3222 -0.08586,25.4797 0.157499,0.1575 0.286359,-2.51997 0.286359,-5.94993 0,-6.82368 0.01627,-6.85212 3.161821,-5.52951 3.727601,1.56734 7.229573,6.12128 7.90421,10.27858 l 0.29917,1.84358 h 4.275238 4.275238 l -0.362286,2.73104 c -1.303248,9.82436 -7.794755,17.44161 -17.281599,20.27855 l -2.271792,0.67935 v 14.21431 14.21431 h 90.075743 c 74.79122,0 90.02938,-0.1208 89.80255,-0.7119 -0.15024,-0.39154 -0.27317,-23.66403 -0.27317,-51.71665 V 159.6009 h -89.7167 -89.7167 z m 30.545463,-15.27884 c 4.034039,1.68553 6.003692,4.57073 6.003692,8.79438 0,8.30503 -9.172101,12.4602 -15.587895,7.06166 -5.378672,-4.52585 -3.623614,-13.50309 3.109182,-15.90366 2.701206,-0.96311 4.080283,-0.95297 6.475021,0.0476 z m 19.061718,41.70671 c 2.008037,2.00804 0.633619,3.57297 -3.393847,3.86429 l -3.24971,0.23506 v 10.33376 10.33376 l 3.285289,0.15914 c 3.656724,0.17714 4.986221,1.19589 3.869996,2.96547 -0.522565,0.82844 -1.585653,0.93545 -9.293441,0.93545 -7.707789,0 -8.770877,-0.10701 -9.293442,-0.93545 -1.116224,-1.76958 0.213272,-2.78833 3.869997,-2.96547 l 3.285288,-0.15914 v -10.398 -10.39801 h -2.370627 c -3.454061,0 -5.112919,-0.76751 -5.112919,-2.36563 0,-0.72766 0.42095,-1.5682 0.935442,-1.86787 0.516131,-0.30061 4.452552,-0.55213 8.781714,-0.56109 6.43549,-0.0133 7.997301,0.13477 8.68626,0.82373 z m 26.925491,-0.19854 c 0.3528,0.35279 0.64145,1.20064 0.64145,1.88411 0,1.64811 -1.77373,2.28529 -6.36164,2.28529 h -3.61934 l -2.22579,4.43063 c -1.22418,2.43685 -2.21891,5.14296 -2.21052,6.01357 0.008,0.87061 1.03739,3.50727 2.28664,5.85924 l 2.27137,4.27632 4.796,0.26727 4.79601,0.26726 0.16613,1.71891 c 0.20941,2.16657 -0.77446,2.4753 -7.04879,2.21179 -5.52871,-0.23219 -5.82955,-0.46806 -9.16245,-7.18373 -3.598493,-7.25083 -3.606062,-7.89743 -0.17146,-14.65402 3.67067,-7.22101 4.74861,-8.01809 10.84332,-8.01809 2.67655,0 4.60508,0.24746 4.99907,0.64145 z"
       id="path4609"
       inkscape:connector-curvature="0" />
    <rect
       style="fill:#000000;fill-opacity:1;stroke-width:0.08748662"
       id="rect4615"
       width="76.767601"
       height="25"
       x="0"
       y="-25.893972"
       transform="scale(1,-1)" />
    <rect
       style="display:inline;fill:#404040;fill-opacity:1;stroke-width:0.02474496"
       id="rect4615-3"
       width="76.767601"
       height="2"
       x="0"
       y="-25.893972"
       transform="scale(1,-1)" />
  </g>
  <g
     inkscape:groupmode="layer"
     id="layer2"
     inkscape:label="Layer 2"
     transform="translate(0,-0.8939724)">
    <rect
       style="fill:#8c8c8c;fill-opacity:1;stroke-width:0.03640417"
       id="rect4637"
       width="0.58419776"
       height="2"
       x="12.8"
       y="-26.99999"
       transform="scale(1,-1)" />
    <rect
       style="fill:#8c8c8c;fill-opacity:1;stroke-width:0.03640417"
       id="rect4637-0"
       width="0.58419776"
       height="2"
       x="51.199852"
       y="-26.99999"
       transform="scale(1,-1)" />
    <rect
       style="fill:#8c8c8c;fill-opacity:1;stroke-width:0.03640417"
       id="rect4637-2"
       width="0.58419776"
       height="2"
       x="38.399902"
       y="-26.99999"
       transform="scale(1,-1)" />
    <rect
       style="fill:#8c8c8c;fill-opacity:1;stroke-width:0.03640417"
       id="rect4637-4"
       width="0.58419776"
       height="2"
       x="25.599951"
       y="-26.99999"
       transform="scale(1,-1)" />
    <rect
       style="fill:#8c8c8c;fill-opacity:1;stroke-width:0.03640417"
       id="rect4637-8"
       width="0.58419776"
       height="2"
       x="63.999802"
       y="-26.99999"
       transform="scale(1,-1)" />
    <use
       x="0"
       y="0"
       xlink:href="#rect4637"
       id="use4729"
       width="100%"
       height="100%"
       transform="translate(0,5.4089576e-6)" />
    <use
       x="0"
       y="0"
       xlink:href="#use4729"
       id="use4731"
       width="100%"
       height="100%"
       transform="translate(0,5.4089576e-6)" />
  </g>
</svg>
